<svg width="24" height="24" viewBox="0 0 24 24" fill="none" xmlns="http://www.w3.org/2000/svg">
<path d="M19.25 21.25H4.75C3.64543 21.25 2.75 20.3546 2.75 19.25V4.75C2.75 3.64543 3.64543 2.75 4.75 2.75H19.25C20.3546 2.75 21.25 3.64543 21.25 4.75V19.25C21.25 20.3546 20.3546 21.25 19.25 21.25Z" stroke="#E26231" stroke-width="2"/>
<path d="M3 16.7565L8.3298 12.1401C9.08435 11.4865 10.2053 11.4894 10.9564 12.1469L20.5 20.5" stroke="#E26231" stroke-width="2" stroke-linecap="round" stroke-linejoin="round"/>
<path d="M18 7.5C18 6.67157 17.3284 6 16.5 6C15.6716 6 15 6.67157 15 7.5C15 8.32843 15.6716 9 16.5 9C17.3284 9 18 8.32843 18 7.5Z" stroke="#E26231" stroke-width="2"/>
</svg>
