<svg width="24" height="24" viewBox="0 0 24 24" fill="none" xmlns="http://www.w3.org/2000/svg">
<path d="M2.70314 18.6505L6.13097 12.7536C6.40189 12.2876 6.40188 11.712 6.13094 11.2459L2.70316 5.34958C2.57007 5.12063 2.49335 4.85979 2.51529 4.59588C2.57396 3.88994 2.81437 3.3868 3.46102 3.26745C3.66892 3.22908 3.8803 3.28495 4.07322 3.3714L20.7655 10.8508C20.9844 10.9489 21.1694 11.1082 21.2062 11.3452C21.2644 11.7197 21.2643 12.2876 21.2057 12.66C21.1689 12.8937 20.986 13.0505 20.7701 13.1472L4.073 20.6287C3.88022 20.7151 3.66901 20.7709 3.46125 20.7327C2.81441 20.6136 2.57396 20.1102 2.51528 19.4042C2.49335 19.1403 2.57006 18.8794 2.70314 18.6505Z" stroke="#E26231" stroke-width="2" stroke-linecap="round"/>
<path d="M20.9999 12L6.87275 11.9998" stroke="#E26231" stroke-width="2" stroke-linecap="round"/>
</svg>
